<svg width="51" height="34" viewBox="0 0 51 34" fill="none" xmlns="http://www.w3.org/2000/svg">
<path d="M34.824 1.67794C34.6834 1.53738 34.5052 1.44046 34.3108 1.39883C34.1164 1.35721 33.9141 1.37266 33.7283 1.44333L16.5395 7.94923H16.5361C16.3379 8.02546 16.168 8.161 16.0498 8.33736C15.9315 8.51372 15.8706 8.72228 15.8753 8.93457C15.88 9.14686 15.9501 9.35253 16.076 9.52347C16.202 9.69442 16.3777 9.82232 16.579 9.8897L16.5966 9.89528L22.4962 12.4145C22.6113 12.4495 22.7335 12.4536 22.8507 12.4265C22.9679 12.3995 23.0759 12.3421 23.164 12.2603L32.6326 3.43751C32.6608 3.4093 32.6943 3.38692 32.7311 3.37165C32.768 3.35638 32.8075 3.34852 32.8474 3.34852C32.8873 3.34852 32.9268 3.35638 32.9637 3.37165C33.0006 3.38692 33.034 3.4093 33.0623 3.43751C33.0905 3.46572 33.1129 3.49922 33.1281 3.53608C33.1434 3.57295 33.1513 3.61245 33.1513 3.65235C33.1513 3.69225 33.1434 3.73176 33.1281 3.76863C33.1129 3.80549 33.0905 3.83898 33.0623 3.8672L24.2391 13.3315C24.1572 13.4196 24.0999 13.5276 24.0728 13.6448C24.0457 13.7619 24.0499 13.8842 24.0848 13.9992L26.6049 19.9023C26.6075 19.9109 26.6101 19.9186 26.6131 19.9268C26.7506 20.3251 27.0986 20.6061 27.5193 20.625H27.5623C27.7746 20.6262 27.9824 20.5635 28.1587 20.445C28.3349 20.3266 28.4715 20.1578 28.5505 19.9607L35.0556 2.77665C35.1273 2.59072 35.1435 2.388 35.1024 2.19301C35.0613 1.99802 34.9646 1.81912 34.824 1.67794Z" fill="black"/>
<path d="M7.44531 32H6.25781L6.26562 31.3867H7.44531C7.85156 31.3867 8.1901 31.3021 8.46094 31.1328C8.73177 30.9609 8.9349 30.7214 9.07031 30.4141C9.20833 30.1042 9.27734 29.7422 9.27734 29.3281V28.9805C9.27734 28.6549 9.23828 28.3659 9.16016 28.1133C9.08203 27.8581 8.96745 27.6432 8.81641 27.4688C8.66536 27.2917 8.48047 27.1576 8.26172 27.0664C8.04557 26.9753 7.79688 26.9297 7.51562 26.9297H6.23438V26.3125H7.51562C7.88802 26.3125 8.22786 26.375 8.53516 26.5C8.84245 26.6224 9.10677 26.8008 9.32812 27.0352C9.55208 27.2669 9.72396 27.5482 9.84375 27.8789C9.96354 28.207 10.0234 28.5768 10.0234 28.9883V29.3281C10.0234 29.7396 9.96354 30.1107 9.84375 30.4414C9.72396 30.7695 9.55078 31.0495 9.32422 31.2812C9.10026 31.513 8.82943 31.6914 8.51172 31.8164C8.19661 31.9388 7.84115 32 7.44531 32ZM6.66016 26.3125V32H5.90625V26.3125H6.66016ZM12.8008 32.0781C12.5065 32.0781 12.2396 32.0286 12 31.9297C11.763 31.8281 11.5586 31.6862 11.3867 31.5039C11.2174 31.3216 11.0872 31.1055 10.9961 30.8555C10.9049 30.6055 10.8594 30.332 10.8594 30.0352V29.8711C10.8594 29.5273 10.9102 29.2214 11.0117 28.9531C11.1133 28.6823 11.2513 28.4531 11.4258 28.2656C11.6003 28.0781 11.7982 27.9362 12.0195 27.8398C12.2409 27.7435 12.4701 27.6953 12.707 27.6953C13.0091 27.6953 13.2695 27.7474 13.4883 27.8516C13.7096 27.9557 13.8906 28.1016 14.0312 28.2891C14.1719 28.474 14.276 28.6927 14.3438 28.9453C14.4115 29.1953 14.4453 29.4688 14.4453 29.7656V30.0898H11.2891V29.5H13.7227V29.4453C13.7122 29.2578 13.6732 29.0755 13.6055 28.8984C13.5404 28.7214 13.4362 28.5755 13.293 28.4609C13.1497 28.3464 12.9544 28.2891 12.707 28.2891C12.543 28.2891 12.3919 28.3242 12.2539 28.3945C12.1159 28.4622 11.9974 28.5638 11.8984 28.6992C11.7995 28.8346 11.7227 29 11.668 29.1953C11.6133 29.3906 11.5859 29.6159 11.5859 29.8711V30.0352C11.5859 30.2357 11.6133 30.4245 11.668 30.6016C11.7253 30.776 11.8073 30.9297 11.9141 31.0625C12.0234 31.1953 12.1549 31.2995 12.3086 31.375C12.4648 31.4505 12.6419 31.4883 12.8398 31.4883C13.0951 31.4883 13.3112 31.4362 13.4883 31.332C13.6654 31.2279 13.8203 31.0885 13.9531 30.9141L14.3906 31.2617C14.2995 31.3997 14.1836 31.5312 14.043 31.6562C13.9023 31.7812 13.7292 31.8828 13.5234 31.9609C13.3203 32.0391 13.0794 32.0781 12.8008 32.0781ZM17.75 30.8789C17.75 30.7747 17.7266 30.6784 17.6797 30.5898C17.6354 30.4987 17.543 30.4167 17.4023 30.3438C17.2643 30.2682 17.056 30.2031 16.7773 30.1484C16.543 30.099 16.3307 30.0404 16.1406 29.9727C15.9531 29.9049 15.793 29.8229 15.6602 29.7266C15.5299 29.6302 15.4297 29.5169 15.3594 29.3867C15.2891 29.2565 15.2539 29.1042 15.2539 28.9297C15.2539 28.763 15.2904 28.6055 15.3633 28.457C15.4388 28.3086 15.5443 28.1771 15.6797 28.0625C15.8177 27.9479 15.9831 27.8581 16.1758 27.793C16.3685 27.7279 16.5833 27.6953 16.8203 27.6953C17.1589 27.6953 17.4479 27.7552 17.6875 27.875C17.9271 27.9948 18.1107 28.1549 18.2383 28.3555C18.3659 28.5534 18.4297 28.7734 18.4297 29.0156H17.707C17.707 28.8984 17.6719 28.7852 17.6016 28.6758C17.5339 28.5638 17.4336 28.4714 17.3008 28.3984C17.1706 28.3255 17.0104 28.2891 16.8203 28.2891C16.6198 28.2891 16.457 28.3203 16.332 28.3828C16.2096 28.4427 16.1198 28.5195 16.0625 28.6133C16.0078 28.707 15.9805 28.806 15.9805 28.9102C15.9805 28.9883 15.9935 29.0586 16.0195 29.1211C16.0482 29.181 16.0977 29.237 16.168 29.2891C16.2383 29.3385 16.3372 29.3854 16.4648 29.4297C16.5924 29.474 16.7552 29.5182 16.9531 29.5625C17.2995 29.6406 17.5846 29.7344 17.8086 29.8438C18.0326 29.9531 18.1992 30.0872 18.3086 30.2461C18.418 30.4049 18.4727 30.5977 18.4727 30.8242C18.4727 31.0091 18.4336 31.1784 18.3555 31.332C18.2799 31.4857 18.1693 31.6185 18.0234 31.7305C17.8802 31.8398 17.7083 31.9258 17.5078 31.9883C17.3099 32.0482 17.0872 32.0781 16.8398 32.0781C16.4674 32.0781 16.1523 32.0117 15.8945 31.8789C15.6367 31.7461 15.4414 31.5742 15.3086 31.3633C15.1758 31.1523 15.1094 30.9297 15.1094 30.6953H15.8359C15.8464 30.8932 15.9036 31.0508 16.0078 31.168C16.112 31.2826 16.2396 31.3646 16.3906 31.4141C16.5417 31.4609 16.6914 31.4844 16.8398 31.4844C17.0378 31.4844 17.2031 31.4583 17.3359 31.4062C17.4714 31.3542 17.5742 31.2826 17.6445 31.1914C17.7148 31.1003 17.75 30.9961 17.75 30.8789ZM21.1914 27.7734V28.3281H18.9062V27.7734H21.1914ZM19.6797 26.7461H20.4023V30.9531C20.4023 31.0964 20.4245 31.2044 20.4688 31.2773C20.513 31.3503 20.5703 31.3984 20.6406 31.4219C20.7109 31.4453 20.7865 31.457 20.8672 31.457C20.9271 31.457 20.9896 31.4518 21.0547 31.4414C21.1224 31.4284 21.1732 31.418 21.207 31.4102L21.2109 32C21.1536 32.0182 21.0781 32.0352 20.9844 32.0508C20.8932 32.069 20.7826 32.0781 20.6523 32.0781C20.4753 32.0781 20.3125 32.043 20.1641 31.9727C20.0156 31.9023 19.8971 31.7852 19.8086 31.6211C19.7227 31.4544 19.6797 31.2305 19.6797 30.9492V26.7461ZM22.8242 27.7734V32H22.0977V27.7734H22.8242ZM22.043 26.6523C22.043 26.5352 22.0781 26.4362 22.1484 26.3555C22.2214 26.2747 22.3281 26.2344 22.4688 26.2344C22.6068 26.2344 22.7122 26.2747 22.7852 26.3555C22.8607 26.4362 22.8984 26.5352 22.8984 26.6523C22.8984 26.7643 22.8607 26.8607 22.7852 26.9414C22.7122 27.0195 22.6068 27.0586 22.4688 27.0586C22.3281 27.0586 22.2214 27.0195 22.1484 26.9414C22.0781 26.8607 22.043 26.7643 22.043 26.6523ZM24.707 28.6758V32H23.9844V27.7734H24.668L24.707 28.6758ZM24.5352 29.7266L24.2344 29.7148C24.237 29.4258 24.2799 29.1589 24.3633 28.9141C24.4466 28.6667 24.5638 28.4518 24.7148 28.2695C24.8659 28.0872 25.0456 27.9466 25.2539 27.8477C25.4648 27.7461 25.6979 27.6953 25.9531 27.6953C26.1615 27.6953 26.349 27.724 26.5156 27.7812C26.6823 27.8359 26.8242 27.9245 26.9414 28.0469C27.0612 28.1693 27.1523 28.3281 27.2148 28.5234C27.2773 28.7161 27.3086 28.9518 27.3086 29.2305V32H26.582V29.2227C26.582 29.0013 26.5495 28.8242 26.4844 28.6914C26.4193 28.556 26.3242 28.4583 26.1992 28.3984C26.0742 28.3359 25.9206 28.3047 25.7383 28.3047C25.5586 28.3047 25.3945 28.3424 25.2461 28.418C25.1003 28.4935 24.974 28.5977 24.8672 28.7305C24.763 28.8633 24.681 29.0156 24.6211 29.1875C24.5638 29.3568 24.5352 29.5365 24.5352 29.7266ZM30.8984 31.2773V29.1016C30.8984 28.9349 30.8646 28.7904 30.7969 28.668C30.7318 28.543 30.6328 28.4466 30.5 28.3789C30.3672 28.3112 30.2031 28.2773 30.0078 28.2773C29.8255 28.2773 29.6654 28.3086 29.5273 28.3711C29.3919 28.4336 29.2852 28.5156 29.207 28.6172C29.1315 28.7188 29.0938 28.8281 29.0938 28.9453H28.3711C28.3711 28.7943 28.4102 28.6445 28.4883 28.4961C28.5664 28.3477 28.6784 28.2135 28.8242 28.0938C28.9727 27.9714 29.1497 27.875 29.3555 27.8047C29.5638 27.7318 29.7956 27.6953 30.0508 27.6953C30.3581 27.6953 30.6289 27.7474 30.8633 27.8516C31.1003 27.9557 31.2852 28.1133 31.418 28.3242C31.5534 28.5326 31.6211 28.7943 31.6211 29.1094V31.0781C31.6211 31.2188 31.6328 31.3685 31.6562 31.5273C31.6823 31.6862 31.7201 31.8229 31.7695 31.9375V32H31.0156C30.9792 31.9167 30.9505 31.806 30.9297 31.668C30.9089 31.5273 30.8984 31.3971 30.8984 31.2773ZM31.0234 29.4375L31.0312 29.9453H30.3008C30.0951 29.9453 29.9115 29.9622 29.75 29.9961C29.5885 30.0273 29.4531 30.0755 29.3438 30.1406C29.2344 30.2057 29.151 30.2878 29.0938 30.3867C29.0365 30.4831 29.0078 30.5964 29.0078 30.7266C29.0078 30.8594 29.0378 30.9805 29.0977 31.0898C29.1576 31.1992 29.2474 31.2865 29.3672 31.3516C29.4896 31.4141 29.6393 31.4453 29.8164 31.4453C30.0378 31.4453 30.2331 31.3984 30.4023 31.3047C30.5716 31.2109 30.7057 31.0964 30.8047 30.9609C30.9062 30.8255 30.9609 30.694 30.9688 30.5664L31.2773 30.9141C31.2591 31.0234 31.2096 31.1445 31.1289 31.2773C31.0482 31.4102 30.9401 31.5378 30.8047 31.6602C30.6719 31.7799 30.513 31.8802 30.3281 31.9609C30.1458 32.0391 29.9401 32.0781 29.7109 32.0781C29.4245 32.0781 29.1732 32.0221 28.957 31.9102C28.7435 31.7982 28.5768 31.6484 28.457 31.4609C28.3398 31.2708 28.2812 31.0586 28.2812 30.8242C28.2812 30.5977 28.3255 30.3984 28.4141 30.2266C28.5026 30.0521 28.6302 29.9076 28.7969 29.793C28.9635 29.6758 29.1641 29.5872 29.3984 29.5273C29.6328 29.4674 29.8945 29.4375 30.1836 29.4375H31.0234ZM34.5273 27.7734V28.3281H32.2422V27.7734H34.5273ZM33.0156 26.7461H33.7383V30.9531C33.7383 31.0964 33.7604 31.2044 33.8047 31.2773C33.849 31.3503 33.9062 31.3984 33.9766 31.4219C34.0469 31.4453 34.1224 31.457 34.2031 31.457C34.263 31.457 34.3255 31.4518 34.3906 31.4414C34.4583 31.4284 34.5091 31.418 34.543 31.4102L34.5469 32C34.4896 32.0182 34.4141 32.0352 34.3203 32.0508C34.2292 32.069 34.1185 32.0781 33.9883 32.0781C33.8112 32.0781 33.6484 32.043 33.5 31.9727C33.3516 31.9023 33.2331 31.7852 33.1445 31.6211C33.0586 31.4544 33.0156 31.2305 33.0156 30.9492V26.7461ZM36.1602 27.7734V32H35.4336V27.7734H36.1602ZM35.3789 26.6523C35.3789 26.5352 35.4141 26.4362 35.4844 26.3555C35.5573 26.2747 35.6641 26.2344 35.8047 26.2344C35.9427 26.2344 36.0482 26.2747 36.1211 26.3555C36.1966 26.4362 36.2344 26.5352 36.2344 26.6523C36.2344 26.7643 36.1966 26.8607 36.1211 26.9414C36.0482 27.0195 35.9427 27.0586 35.8047 27.0586C35.6641 27.0586 35.5573 27.0195 35.4844 26.9414C35.4141 26.8607 35.3789 26.7643 35.3789 26.6523ZM37.1289 29.9336V29.8438C37.1289 29.5391 37.1732 29.2565 37.2617 28.9961C37.3503 28.7331 37.4779 28.5052 37.6445 28.3125C37.8112 28.1172 38.013 27.9661 38.25 27.8594C38.487 27.75 38.7526 27.6953 39.0469 27.6953C39.3438 27.6953 39.6107 27.75 39.8477 27.8594C40.0872 27.9661 40.2904 28.1172 40.457 28.3125C40.6263 28.5052 40.7552 28.7331 40.8438 28.9961C40.9323 29.2565 40.9766 29.5391 40.9766 29.8438V29.9336C40.9766 30.2383 40.9323 30.5208 40.8438 30.7812C40.7552 31.0417 40.6263 31.2695 40.457 31.4648C40.2904 31.6576 40.0885 31.8086 39.8516 31.918C39.6172 32.0247 39.3516 32.0781 39.0547 32.0781C38.7578 32.0781 38.4909 32.0247 38.2539 31.918C38.0169 31.8086 37.8138 31.6576 37.6445 31.4648C37.4779 31.2695 37.3503 31.0417 37.2617 30.7812C37.1732 30.5208 37.1289 30.2383 37.1289 29.9336ZM37.8516 29.8438V29.9336C37.8516 30.1445 37.8763 30.3438 37.9258 30.5312C37.9753 30.7161 38.0495 30.8802 38.1484 31.0234C38.25 31.1667 38.3763 31.2799 38.5273 31.3633C38.6784 31.444 38.8542 31.4844 39.0547 31.4844C39.2526 31.4844 39.4258 31.444 39.5742 31.3633C39.7253 31.2799 39.8503 31.1667 39.9492 31.0234C40.0482 30.8802 40.1224 30.7161 40.1719 30.5312C40.224 30.3438 40.25 30.1445 40.25 29.9336V29.8438C40.25 29.6354 40.224 29.4388 40.1719 29.2539C40.1224 29.0664 40.0469 28.901 39.9453 28.7578C39.8464 28.612 39.7214 28.4974 39.5703 28.4141C39.4219 28.3307 39.2474 28.2891 39.0469 28.2891C38.849 28.2891 38.6745 28.3307 38.5234 28.4141C38.375 28.4974 38.25 28.612 38.1484 28.7578C38.0495 28.901 37.9753 29.0664 37.9258 29.2539C37.8763 29.4388 37.8516 29.6354 37.8516 29.8438ZM42.6055 28.6758V32H41.8828V27.7734H42.5664L42.6055 28.6758ZM42.4336 29.7266L42.1328 29.7148C42.1354 29.4258 42.1784 29.1589 42.2617 28.9141C42.3451 28.6667 42.4622 28.4518 42.6133 28.2695C42.7643 28.0872 42.944 27.9466 43.1523 27.8477C43.3633 27.7461 43.5964 27.6953 43.8516 27.6953C44.0599 27.6953 44.2474 27.724 44.4141 27.7812C44.5807 27.8359 44.7227 27.9245 44.8398 28.0469C44.9596 28.1693 45.0508 28.3281 45.1133 28.5234C45.1758 28.7161 45.207 28.9518 45.207 29.2305V32H44.4805V29.2227C44.4805 29.0013 44.4479 28.8242 44.3828 28.6914C44.3177 28.556 44.2227 28.4583 44.0977 28.3984C43.9727 28.3359 43.819 28.3047 43.6367 28.3047C43.457 28.3047 43.293 28.3424 43.1445 28.418C42.9987 28.4935 42.8724 28.5977 42.7656 28.7305C42.6615 28.8633 42.5794 29.0156 42.5195 29.1875C42.4622 29.3568 42.4336 29.5365 42.4336 29.7266Z" fill="#303030"/>
</svg>
