<svg width="28" height="34" viewBox="0 0 28 34" fill="none" xmlns="http://www.w3.org/2000/svg">
<path d="M8.80566 16.5139V9.63886C8.80566 9.39696 8.8599 9.1678 8.96837 8.95136C9.07684 8.73493 9.22631 8.55669 9.41678 8.41664L14.0001 4.97914C14.2675 4.77544 14.573 4.67358 14.9168 4.67358C15.2605 4.67358 15.5661 4.77544 15.8334 4.97914L20.4168 8.41664C20.6077 8.55669 20.7575 8.73493 20.8659 8.95136C20.9744 9.1678 21.0284 9.39696 21.0279 9.63886V16.5139C21.0279 16.934 20.8782 17.2938 20.5787 17.5932C20.2793 17.8927 19.9197 18.0421 19.5001 18.0416H17.2084C16.992 18.0416 16.8107 17.9683 16.6646 17.8216C16.5184 17.675 16.4451 17.4937 16.4446 17.2778V13.4583C16.4446 13.2419 16.3712 13.0606 16.2246 12.9144C16.0779 12.7683 15.8966 12.6949 15.6807 12.6944H14.1529C13.9365 12.6944 13.7552 12.7678 13.609 12.9144C13.4628 13.0611 13.3895 13.2424 13.389 13.4583V17.2778C13.389 17.4942 13.3157 17.6757 13.169 17.8224C13.0223 17.9691 12.841 18.0421 12.6251 18.0416H10.3334C9.9133 18.0416 9.55377 17.8922 9.25483 17.5932C8.9559 17.2943 8.80617 16.9345 8.80566 16.5139Z" fill="black"/>
<path d="M7.60938 28.7578V29.3711H4.53125V28.7578H7.60938ZM4.64844 26.3125V32H3.89453V26.3125H4.64844ZM8.26562 26.3125V32H7.51562V26.3125H8.26562ZM9.30469 29.9336V29.8438C9.30469 29.5391 9.34896 29.2565 9.4375 28.9961C9.52604 28.7331 9.65365 28.5052 9.82031 28.3125C9.98698 28.1172 10.1888 27.9661 10.4258 27.8594C10.6628 27.75 10.9284 27.6953 11.2227 27.6953C11.5195 27.6953 11.7865 27.75 12.0234 27.8594C12.263 27.9661 12.4661 28.1172 12.6328 28.3125C12.8021 28.5052 12.931 28.7331 13.0195 28.9961C13.1081 29.2565 13.1523 29.5391 13.1523 29.8438V29.9336C13.1523 30.2383 13.1081 30.5208 13.0195 30.7812C12.931 31.0417 12.8021 31.2695 12.6328 31.4648C12.4661 31.6576 12.2643 31.8086 12.0273 31.918C11.793 32.0247 11.5273 32.0781 11.2305 32.0781C10.9336 32.0781 10.6667 32.0247 10.4297 31.918C10.1927 31.8086 9.98958 31.6576 9.82031 31.4648C9.65365 31.2695 9.52604 31.0417 9.4375 30.7812C9.34896 30.5208 9.30469 30.2383 9.30469 29.9336ZM10.0273 29.8438V29.9336C10.0273 30.1445 10.0521 30.3438 10.1016 30.5312C10.151 30.7161 10.2253 30.8802 10.3242 31.0234C10.4258 31.1667 10.5521 31.2799 10.7031 31.3633C10.8542 31.444 11.0299 31.4844 11.2305 31.4844C11.4284 31.4844 11.6016 31.444 11.75 31.3633C11.901 31.2799 12.026 31.1667 12.125 31.0234C12.224 30.8802 12.2982 30.7161 12.3477 30.5312C12.3997 30.3438 12.4258 30.1445 12.4258 29.9336V29.8438C12.4258 29.6354 12.3997 29.4388 12.3477 29.2539C12.2982 29.0664 12.2227 28.901 12.1211 28.7578C12.0221 28.612 11.8971 28.4974 11.7461 28.4141C11.5977 28.3307 11.4232 28.2891 11.2227 28.2891C11.0247 28.2891 10.8503 28.3307 10.6992 28.4141C10.5508 28.4974 10.4258 28.612 10.3242 28.7578C10.2253 28.901 10.151 29.0664 10.1016 29.2539C10.0521 29.4388 10.0273 29.6354 10.0273 29.8438ZM14.7773 28.6133V32H14.0508V27.7734H14.7383L14.7773 28.6133ZM14.6289 29.7266L14.293 29.7148C14.2956 29.4258 14.3333 29.1589 14.4062 28.9141C14.4792 28.6667 14.5872 28.4518 14.7305 28.2695C14.8737 28.0872 15.0521 27.9466 15.2656 27.8477C15.4792 27.7461 15.7266 27.6953 16.0078 27.6953C16.2057 27.6953 16.388 27.724 16.5547 27.7812C16.7214 27.8359 16.8659 27.9232 16.9883 28.043C17.1107 28.1628 17.2057 28.3164 17.2734 28.5039C17.3411 28.6914 17.375 28.918 17.375 29.1836V32H16.6523V29.2188C16.6523 28.9974 16.6146 28.8203 16.5391 28.6875C16.4661 28.5547 16.362 28.4583 16.2266 28.3984C16.0911 28.3359 15.9323 28.3047 15.75 28.3047C15.5365 28.3047 15.3581 28.3424 15.2148 28.418C15.0716 28.4935 14.957 28.5977 14.8711 28.7305C14.7852 28.8633 14.7227 29.0156 14.6836 29.1875C14.6471 29.3568 14.6289 29.5365 14.6289 29.7266ZM17.3672 29.3281L16.8828 29.4766C16.8854 29.2448 16.9232 29.0221 16.9961 28.8086C17.0716 28.5951 17.1797 28.4049 17.3203 28.2383C17.4635 28.0716 17.6393 27.9401 17.8477 27.8438C18.056 27.7448 18.2943 27.6953 18.5625 27.6953C18.7891 27.6953 18.9896 27.7253 19.1641 27.7852C19.3411 27.8451 19.4896 27.9375 19.6094 28.0625C19.7318 28.1849 19.8242 28.3424 19.8867 28.5352C19.9492 28.7279 19.9805 28.957 19.9805 29.2227V32H19.2539V29.2148C19.2539 28.9779 19.2161 28.7943 19.1406 28.6641C19.0677 28.5312 18.9635 28.4388 18.8281 28.3867C18.6953 28.332 18.5365 28.3047 18.3516 28.3047C18.1927 28.3047 18.0521 28.332 17.9297 28.3867C17.8073 28.4414 17.7044 28.5169 17.6211 28.6133C17.5378 28.707 17.474 28.8151 17.4297 28.9375C17.388 29.0599 17.3672 29.1901 17.3672 29.3281ZM22.8281 32.0781C22.5339 32.0781 22.2669 32.0286 22.0273 31.9297C21.7904 31.8281 21.5859 31.6862 21.4141 31.5039C21.2448 31.3216 21.1146 31.1055 21.0234 30.8555C20.9323 30.6055 20.8867 30.332 20.8867 30.0352V29.8711C20.8867 29.5273 20.9375 29.2214 21.0391 28.9531C21.1406 28.6823 21.2786 28.4531 21.4531 28.2656C21.6276 28.0781 21.8255 27.9362 22.0469 27.8398C22.2682 27.7435 22.4974 27.6953 22.7344 27.6953C23.0365 27.6953 23.2969 27.7474 23.5156 27.8516C23.737 27.9557 23.918 28.1016 24.0586 28.2891C24.1992 28.474 24.3034 28.6927 24.3711 28.9453C24.4388 29.1953 24.4727 29.4688 24.4727 29.7656V30.0898H21.3164V29.5H23.75V29.4453C23.7396 29.2578 23.7005 29.0755 23.6328 28.8984C23.5677 28.7214 23.4635 28.5755 23.3203 28.4609C23.1771 28.3464 22.9818 28.2891 22.7344 28.2891C22.5703 28.2891 22.4193 28.3242 22.2812 28.3945C22.1432 28.4622 22.0247 28.5638 21.9258 28.6992C21.8268 28.8346 21.75 29 21.6953 29.1953C21.6406 29.3906 21.6133 29.6159 21.6133 29.8711V30.0352C21.6133 30.2357 21.6406 30.4245 21.6953 30.6016C21.7526 30.776 21.8346 30.9297 21.9414 31.0625C22.0508 31.1953 22.1823 31.2995 22.3359 31.375C22.4922 31.4505 22.6693 31.4883 22.8672 31.4883C23.1224 31.4883 23.3385 31.4362 23.5156 31.332C23.6927 31.2279 23.8477 31.0885 23.9805 30.9141L24.418 31.2617C24.3268 31.3997 24.2109 31.5312 24.0703 31.6562C23.9297 31.7812 23.7565 31.8828 23.5508 31.9609C23.3477 32.0391 23.1068 32.0781 22.8281 32.0781Z" fill="#303030"/>
</svg>
