<svg width="43" height="34" viewBox="0 0 43 34" fill="none" xmlns="http://www.w3.org/2000/svg">
<path fill-rule="evenodd" clip-rule="evenodd" d="M15.6207 4.20385C15.0835 4.74102 15.0835 5.60452 15.0835 7.33335V15.5834C15.0835 17.3122 15.0835 18.1757 15.6207 18.7129C16.1578 19.25 17.0213 19.25 18.7502 19.25H24.2502C25.979 19.25 26.8425 19.25 27.3797 18.7129C27.9168 18.1757 27.9168 17.3122 27.9168 15.5834V7.33335C27.9168 5.60452 27.9168 4.74102 27.3797 4.20385C26.8425 3.66669 25.979 3.66669 24.2502 3.66669H18.7502C17.0213 3.66669 16.1578 3.66669 15.6207 4.20385ZM18.7502 7.33335C18.507 7.33335 18.2739 7.42993 18.102 7.60184C17.9301 7.77375 17.8335 8.00691 17.8335 8.25002C17.8335 8.49314 17.9301 8.72629 18.102 8.8982C18.2739 9.07011 18.507 9.16669 18.7502 9.16669H24.2502C24.4933 9.16669 24.7264 9.07011 24.8983 8.8982C25.0703 8.72629 25.1668 8.49314 25.1668 8.25002C25.1668 8.00691 25.0703 7.77375 24.8983 7.60184C24.7264 7.42993 24.4933 7.33335 24.2502 7.33335H18.7502ZM18.7502 11C18.507 11 18.2739 11.0966 18.102 11.2685C17.9301 11.4404 17.8335 11.6736 17.8335 11.9167C17.8335 12.1598 17.9301 12.393 18.102 12.5649C18.2739 12.7368 18.507 12.8334 18.7502 12.8334H24.2502C24.4933 12.8334 24.7264 12.7368 24.8983 12.5649C25.0703 12.393 25.1668 12.1598 25.1668 11.9167C25.1668 11.6736 25.0703 11.4404 24.8983 11.2685C24.7264 11.0966 24.4933 11 24.2502 11H18.7502ZM18.7502 14.6667C18.507 14.6667 18.2739 14.7633 18.102 14.9352C17.9301 15.1071 17.8335 15.3402 17.8335 15.5834C17.8335 15.8265 17.9301 16.0596 18.102 16.2315C18.2739 16.4034 18.507 16.5 18.7502 16.5H22.4168C22.6599 16.5 22.8931 16.4034 23.065 16.2315C23.2369 16.0596 23.3335 15.8265 23.3335 15.5834C23.3335 15.3402 23.2369 15.1071 23.065 14.9352C22.8931 14.7633 22.6599 14.6667 22.4168 14.6667H18.7502Z" fill="black"/>
<path d="M9.28516 26.3125H10.0156L11.8789 30.9492L13.7383 26.3125H14.4727L12.1602 32H11.5898L9.28516 26.3125ZM9.04688 26.3125H9.69141L9.79688 29.7812V32H9.04688V26.3125ZM14.0625 26.3125H14.707V32H13.957V29.7812L14.0625 26.3125ZM17.1094 31.5625L18.2852 27.7734H19.0586L17.3633 32.6523C17.3242 32.7565 17.2721 32.8685 17.207 32.9883C17.1445 33.1107 17.0638 33.2266 16.9648 33.3359C16.8659 33.4453 16.7461 33.5339 16.6055 33.6016C16.4674 33.6719 16.3021 33.707 16.1094 33.707C16.0521 33.707 15.9792 33.6992 15.8906 33.6836C15.8021 33.668 15.7396 33.6549 15.7031 33.6445L15.6992 33.0586C15.7201 33.0612 15.7526 33.0638 15.7969 33.0664C15.8438 33.0716 15.8763 33.0742 15.8945 33.0742C16.0586 33.0742 16.1979 33.0521 16.3125 33.0078C16.4271 32.9661 16.5234 32.8945 16.6016 32.793C16.6823 32.694 16.7513 32.5573 16.8086 32.3828L17.1094 31.5625ZM16.2461 27.7734L17.3438 31.0547L17.5312 31.8164L17.0117 32.082L15.457 27.7734H16.2461ZM23.75 26.3125V32H23.0078V26.3125H23.75ZM25.5781 26.3125V26.9297H21.1836V26.3125H25.5781ZM26.7383 28.4375V32H26.0156V27.7734H26.7188L26.7383 28.4375ZM28.0586 27.75L28.0547 28.4219C27.9948 28.4089 27.9375 28.401 27.8828 28.3984C27.8307 28.3932 27.7708 28.3906 27.7031 28.3906C27.5365 28.3906 27.3893 28.4167 27.2617 28.4688C27.1341 28.5208 27.026 28.5938 26.9375 28.6875C26.849 28.7812 26.7786 28.8932 26.7266 29.0234C26.6771 29.151 26.6445 29.2917 26.6289 29.4453L26.4258 29.5625C26.4258 29.3073 26.4505 29.0677 26.5 28.8438C26.5521 28.6198 26.6315 28.4219 26.7383 28.25C26.8451 28.0755 26.9805 27.9401 27.1445 27.8438C27.3112 27.7448 27.5091 27.6953 27.7383 27.6953C27.7904 27.6953 27.8503 27.7018 27.918 27.7148C27.9857 27.7253 28.0326 27.737 28.0586 27.75ZM29.5117 27.7734V32H28.7852V27.7734H29.5117ZM28.7305 26.6523C28.7305 26.5352 28.7656 26.4362 28.8359 26.3555C28.9089 26.2747 29.0156 26.2344 29.1562 26.2344C29.2943 26.2344 29.3997 26.2747 29.4727 26.3555C29.5482 26.4362 29.5859 26.5352 29.5859 26.6523C29.5859 26.7643 29.5482 26.8607 29.4727 26.9414C29.3997 27.0195 29.2943 27.0586 29.1562 27.0586C29.0156 27.0586 28.9089 27.0195 28.8359 26.9414C28.7656 26.8607 28.7305 26.7643 28.7305 26.6523ZM31.3945 28.5859V33.625H30.668V27.7734H31.332L31.3945 28.5859ZM34.2422 29.8516V29.9336C34.2422 30.2409 34.2057 30.526 34.1328 30.7891C34.0599 31.0495 33.9531 31.276 33.8125 31.4688C33.6745 31.6615 33.5039 31.8112 33.3008 31.918C33.0977 32.0247 32.8646 32.0781 32.6016 32.0781C32.3333 32.0781 32.0964 32.0339 31.8906 31.9453C31.6849 31.8568 31.5104 31.7279 31.3672 31.5586C31.224 31.3893 31.1094 31.1862 31.0234 30.9492C30.9401 30.7122 30.8828 30.4453 30.8516 30.1484V29.7109C30.8828 29.3984 30.9414 29.1185 31.0273 28.8711C31.1133 28.6237 31.2266 28.4128 31.3672 28.2383C31.5104 28.0612 31.6836 27.9271 31.8867 27.8359C32.0898 27.7422 32.3242 27.6953 32.5898 27.6953C32.8555 27.6953 33.0911 27.7474 33.2969 27.8516C33.5026 27.9531 33.6758 28.099 33.8164 28.2891C33.957 28.4792 34.0625 28.707 34.1328 28.9727C34.2057 29.2357 34.2422 29.5286 34.2422 29.8516ZM33.5156 29.9336V29.8516C33.5156 29.6406 33.4935 29.4427 33.4492 29.2578C33.4049 29.0703 33.3359 28.9062 33.2422 28.7656C33.151 28.6224 33.0339 28.5104 32.8906 28.4297C32.7474 28.3464 32.5768 28.3047 32.3789 28.3047C32.1966 28.3047 32.0378 28.3359 31.9023 28.3984C31.7695 28.4609 31.6562 28.5456 31.5625 28.6523C31.4688 28.7565 31.3919 28.8763 31.332 29.0117C31.2747 29.1445 31.2318 29.2826 31.2031 29.4258V30.4375C31.2552 30.6198 31.3281 30.7917 31.4219 30.9531C31.5156 31.112 31.6406 31.2409 31.7969 31.3398C31.9531 31.4362 32.1497 31.4844 32.3867 31.4844C32.582 31.4844 32.75 31.444 32.8906 31.3633C33.0339 31.2799 33.151 31.1667 33.2422 31.0234C33.3359 30.8802 33.4049 30.7161 33.4492 30.5312C33.4935 30.3438 33.5156 30.1445 33.5156 29.9336Z" fill="#303030"/>
</svg>
