<svg width="24" height="34" viewBox="0 0 24 34" fill="none" xmlns="http://www.w3.org/2000/svg">
<path d="M11.9997 9.16665C14.0247 9.16665 15.6663 7.52502 15.6663 5.49998C15.6663 3.47494 14.0247 1.83331 11.9997 1.83331C9.97463 1.83331 8.33301 3.47494 8.33301 5.49998C8.33301 7.52502 9.97463 9.16665 11.9997 9.16665Z" stroke="#303030" stroke-width="2"/>
<path d="M19.3332 16.0416C19.3332 18.3195 19.3332 20.1666 11.9998 20.1666C4.6665 20.1666 4.6665 18.3195 4.6665 16.0416C4.6665 13.7637 7.95 11.9166 11.9998 11.9166C16.0497 11.9166 19.3332 13.7637 19.3332 16.0416Z" stroke="#303030" stroke-width="2"/>
<path d="M5.44531 29.7695H3.92578V29.1562H5.44531C5.73958 29.1562 5.97786 29.1094 6.16016 29.0156C6.34245 28.9219 6.47526 28.7917 6.55859 28.625C6.64453 28.4583 6.6875 28.2682 6.6875 28.0547C6.6875 27.8594 6.64453 27.6758 6.55859 27.5039C6.47526 27.332 6.34245 27.194 6.16016 27.0898C5.97786 26.9831 5.73958 26.9297 5.44531 26.9297H4.10156V32H3.34766V26.3125H5.44531C5.875 26.3125 6.23828 26.3867 6.53516 26.5352C6.83203 26.6836 7.05729 26.8893 7.21094 27.1523C7.36458 27.4128 7.44141 27.7109 7.44141 28.0469C7.44141 28.4115 7.36458 28.7227 7.21094 28.9805C7.05729 29.2383 6.83203 29.4349 6.53516 29.5703C6.23828 29.7031 5.875 29.7695 5.44531 29.7695ZM9.00781 28.4375V32H8.28516V27.7734H8.98828L9.00781 28.4375ZM10.3281 27.75L10.3242 28.4219C10.2643 28.4089 10.207 28.401 10.1523 28.3984C10.1003 28.3932 10.0404 28.3906 9.97266 28.3906C9.80599 28.3906 9.65885 28.4167 9.53125 28.4688C9.40365 28.5208 9.29557 28.5938 9.20703 28.6875C9.11849 28.7812 9.04818 28.8932 8.99609 29.0234C8.94661 29.151 8.91406 29.2917 8.89844 29.4453L8.69531 29.5625C8.69531 29.3073 8.72005 29.0677 8.76953 28.8438C8.82161 28.6198 8.90104 28.4219 9.00781 28.25C9.11458 28.0755 9.25 27.9401 9.41406 27.8438C9.58073 27.7448 9.77865 27.6953 10.0078 27.6953C10.0599 27.6953 10.1198 27.7018 10.1875 27.7148C10.2552 27.7253 10.3021 27.737 10.3281 27.75ZM10.7266 29.9336V29.8438C10.7266 29.5391 10.7708 29.2565 10.8594 28.9961C10.9479 28.7331 11.0755 28.5052 11.2422 28.3125C11.4089 28.1172 11.6107 27.9661 11.8477 27.8594C12.0846 27.75 12.3503 27.6953 12.6445 27.6953C12.9414 27.6953 13.2083 27.75 13.4453 27.8594C13.6849 27.9661 13.888 28.1172 14.0547 28.3125C14.224 28.5052 14.3529 28.7331 14.4414 28.9961C14.5299 29.2565 14.5742 29.5391 14.5742 29.8438V29.9336C14.5742 30.2383 14.5299 30.5208 14.4414 30.7812C14.3529 31.0417 14.224 31.2695 14.0547 31.4648C13.888 31.6576 13.6862 31.8086 13.4492 31.918C13.2148 32.0247 12.9492 32.0781 12.6523 32.0781C12.3555 32.0781 12.0885 32.0247 11.8516 31.918C11.6146 31.8086 11.4115 31.6576 11.2422 31.4648C11.0755 31.2695 10.9479 31.0417 10.8594 30.7812C10.7708 30.5208 10.7266 30.2383 10.7266 29.9336ZM11.4492 29.8438V29.9336C11.4492 30.1445 11.474 30.3438 11.5234 30.5312C11.5729 30.7161 11.6471 30.8802 11.7461 31.0234C11.8477 31.1667 11.974 31.2799 12.125 31.3633C12.276 31.444 12.4518 31.4844 12.6523 31.4844C12.8503 31.4844 13.0234 31.444 13.1719 31.3633C13.3229 31.2799 13.4479 31.1667 13.5469 31.0234C13.6458 30.8802 13.7201 30.7161 13.7695 30.5312C13.8216 30.3438 13.8477 30.1445 13.8477 29.9336V29.8438C13.8477 29.6354 13.8216 29.4388 13.7695 29.2539C13.7201 29.0664 13.6445 28.901 13.543 28.7578C13.444 28.612 13.319 28.4974 13.168 28.4141C13.0195 28.3307 12.8451 28.2891 12.6445 28.2891C12.4466 28.2891 12.2721 28.3307 12.1211 28.4141C11.9727 28.4974 11.8477 28.612 11.7461 28.7578C11.6471 28.901 11.5729 29.0664 11.5234 29.2539C11.474 29.4388 11.4492 29.6354 11.4492 29.8438ZM16.4453 32H15.7227V27.4062C15.7227 27.0859 15.7852 26.8151 15.9102 26.5938C16.0352 26.3724 16.2135 26.2044 16.4453 26.0898C16.6771 25.9753 16.9518 25.918 17.2695 25.918C17.457 25.918 17.6406 25.9414 17.8203 25.9883C18 26.0326 18.1849 26.0885 18.375 26.1562L18.2539 26.7656C18.1341 26.7188 17.9948 26.6745 17.8359 26.6328C17.6797 26.5885 17.5078 26.5664 17.3203 26.5664C17.0104 26.5664 16.7865 26.6367 16.6484 26.7773C16.513 26.9154 16.4453 27.125 16.4453 27.4062V32ZM17.3086 27.7734V28.3281H15.0547V27.7734H17.3086ZM18.7305 27.7734V32H18.0078V27.7734H18.7305ZM20.7031 26V32H19.9766V26H20.7031Z" fill="#303030"/>
</svg>
