<svg width="18" height="18" viewBox="0 0 18 18" fill="none" xmlns="http://www.w3.org/2000/svg">
<path d="M3 7.5C3 4.67175 3 3.25725 3.879 2.379C4.758 1.50075 6.17175 1.5 9 1.5C11.8282 1.5 13.2427 1.5 14.121 2.379C14.9992 3.258 15 4.67175 15 7.5V9C15 11.8282 15 13.2427 14.121 14.121C13.242 14.9992 11.8282 15 9 15C6.17175 15 4.75725 15 3.879 14.121C3.00075 13.242 3 11.8282 3 9V7.5Z" stroke="#303030" stroke-width="1.125"/>
<path d="M11.625 12H12.75M5.25 12H6.375M4.5 14.625V15.75C4.5 15.9489 4.57902 16.1397 4.71967 16.2803C4.86032 16.421 5.05109 16.5 5.25 16.5H6.375C6.57391 16.5 6.76468 16.421 6.90533 16.2803C7.04598 16.1397 7.125 15.9489 7.125 15.75V15M13.5 14.625V15.75C13.5 15.9489 13.421 16.1397 13.2803 16.2803C13.1397 16.421 12.9489 16.5 12.75 16.5H11.625C11.4261 16.5 11.2353 16.421 11.0947 16.2803C10.954 16.1397 10.875 15.9489 10.875 15.75V15M15 6.75H15.75C15.9489 6.75 16.1397 6.82902 16.2803 6.96967C16.421 7.11032 16.5 7.30109 16.5 7.5V8.25C16.5 8.36643 16.4729 8.48127 16.4208 8.58541C16.3687 8.68955 16.2931 8.78014 16.2 8.85L15 9.75H3L1.8 8.85C1.70685 8.78014 1.63125 8.68955 1.57918 8.58541C1.52711 8.48127 1.5 8.36643 1.5 8.25V7.5C1.5 7.30109 1.57902 7.11032 1.71967 6.96967C1.86032 6.82902 2.05109 6.75 2.25 6.75H3" stroke="#303030" stroke-width="1.125" stroke-linecap="round" stroke-linejoin="round"/>
<path d="M14.625 3.75H3.375" stroke="#303030" stroke-width="1.125" stroke-linecap="round"/>
</svg>
