<svg width="18" height="18" viewBox="0 0 18 18" fill="none" xmlns="http://www.w3.org/2000/svg">
<path d="M4.965 9.80999C4.87193 9.84368 4.7874 9.89742 4.71741 9.96741C4.64742 10.0374 4.59368 10.1219 4.56 10.215C4.50544 10.3513 4.49209 10.5006 4.52159 10.6444C4.55109 10.7882 4.62215 10.9202 4.72596 11.024C4.82977 11.1278 4.96176 11.1989 5.10558 11.2284C5.24939 11.2579 5.3987 11.2445 5.535 11.19C5.62556 11.1514 5.70917 11.0982 5.7825 11.0325C5.84818 10.9592 5.90139 10.8756 5.94 10.785C5.98199 10.696 6.00253 10.5984 6 10.5C5.99724 10.3014 5.91955 10.1112 5.7825 9.96749C5.67703 9.86342 5.5431 9.79293 5.39761 9.7649C5.25212 9.73687 5.10158 9.75256 4.965 9.80999ZM14.82 6.80999L13.8 3.78749C13.6444 3.34742 13.3558 2.96662 12.9742 2.69786C12.5925 2.42911 12.1368 2.28569 11.67 2.28749H6.33C5.86323 2.28569 5.40746 2.42911 5.02582 2.69786C4.64419 2.96662 4.35559 3.34742 4.2 3.78749L3.18 6.83249C2.70024 6.95812 2.27544 7.23874 1.97162 7.63072C1.66781 8.02269 1.50201 8.50406 1.5 8.99999V12C1.5013 12.4642 1.64616 12.9166 1.9147 13.2953C2.18325 13.6739 2.56234 13.9603 3 14.115V15C3 15.1989 3.07902 15.3897 3.21967 15.5303C3.36032 15.671 3.55109 15.75 3.75 15.75C3.94891 15.75 4.13968 15.671 4.28033 15.5303C4.42098 15.3897 4.5 15.1989 4.5 15V14.25H13.5V15C13.5 15.1989 13.579 15.3897 13.7197 15.5303C13.8603 15.671 14.0511 15.75 14.25 15.75C14.4489 15.75 14.6397 15.671 14.7803 15.5303C14.921 15.3897 15 15.1989 15 15V14.115C15.4377 13.9603 15.8168 13.6739 16.0853 13.2953C16.3538 12.9166 16.4987 12.4642 16.5 12V8.99999C16.498 8.50406 16.3322 8.02269 16.0284 7.63072C15.7246 7.23874 15.2998 6.95812 14.82 6.83249V6.80999ZM5.6175 4.25999C5.66781 4.11103 5.76367 3.98164 5.89153 3.89012C6.01938 3.79861 6.17277 3.74959 6.33 3.74999H11.67C11.8335 3.74146 11.9954 3.78669 12.1308 3.87878C12.2663 3.97087 12.3678 4.10476 12.42 4.25999L13.2075 6.74999H4.7925L5.6175 4.25999ZM15 12C15 12.1989 14.921 12.3897 14.7803 12.5303C14.6397 12.671 14.4489 12.75 14.25 12.75H3.75C3.55109 12.75 3.36032 12.671 3.21967 12.5303C3.07902 12.3897 3 12.1989 3 12V8.99999C3 8.80108 3.07902 8.61031 3.21967 8.46966C3.36032 8.32901 3.55109 8.24999 3.75 8.24999H14.25C14.4489 8.24999 14.6397 8.32901 14.7803 8.46966C14.921 8.61031 15 8.80108 15 8.99999V12ZM12.465 9.80999C12.3719 9.84368 12.2874 9.89742 12.2174 9.96741C12.1474 10.0374 12.0937 10.1219 12.06 10.215C12.0054 10.3513 11.9921 10.5006 12.0216 10.6444C12.0511 10.7882 12.1222 10.9202 12.226 11.024C12.3298 11.1278 12.4618 11.1989 12.6056 11.2284C12.7494 11.2579 12.8987 11.2445 13.035 11.19C13.1281 11.1563 13.2126 11.1026 13.2826 11.0326C13.3526 10.9626 13.4063 10.8781 13.44 10.785C13.482 10.696 13.5025 10.5984 13.5 10.5C13.4972 10.3014 13.4195 10.1112 13.2825 9.96749C13.177 9.86342 13.0431 9.79293 12.8976 9.7649C12.7521 9.73687 12.6016 9.75256 12.465 9.80999ZM9.75 9.74999H8.25C8.05109 9.74999 7.86032 9.82901 7.71967 9.96966C7.57902 10.1103 7.5 10.3011 7.5 10.5C7.5 10.6989 7.57902 10.8897 7.71967 11.0303C7.86032 11.171 8.05109 11.25 8.25 11.25H9.75C9.94891 11.25 10.1397 11.171 10.2803 11.0303C10.421 10.8897 10.5 10.6989 10.5 10.5C10.5 10.3011 10.421 10.1103 10.2803 9.96966C10.1397 9.82901 9.94891 9.74999 9.75 9.74999Z" fill="#303030"/>
</svg>
