<svg width="18" height="18" viewBox="0 0 18 18" fill="none" xmlns="http://www.w3.org/2000/svg">
<path d="M13.35 14.4L12 8.25L14.625 5.625C15.75 4.5 16.125 3 15.75 2.25C15 1.875 13.5 2.25 12.375 3.375L9.75 6L3.6 4.65C3.225 4.575 2.925 4.725 2.775 5.025L2.55 5.4C2.4 5.775 2.475 6.15 2.775 6.375L6.75 9L5.25 11.25H3L2.25 12L4.5 13.5L6 15.75L6.75 15V12.75L9 11.25L11.625 15.225C11.85 15.525 12.225 15.6 12.6 15.45L12.975 15.3C13.275 15.075 13.425 14.775 13.35 14.4Z" stroke="#303030" stroke-width="1.5" stroke-linecap="round" stroke-linejoin="round"/>
</svg>
