<svg width="18" height="18" viewBox="0 0 18 18" fill="none" xmlns="http://www.w3.org/2000/svg">
<path fill-rule="evenodd" clip-rule="evenodd" d="M7.50013 2.25C7.50013 2.05109 7.57915 1.86032 7.7198 1.71967C7.86045 1.57902 8.05122 1.5 8.25013 1.5H9.75013C9.94904 1.5 10.1398 1.57902 10.2805 1.71967C10.4211 1.86032 10.5001 2.05109 10.5001 2.25V3.24L12.9969 3.6555C13.347 3.71407 13.665 3.8949 13.8943 4.16584C14.1236 4.43679 14.2495 4.78028 14.2494 5.13525V7.70925L15.7944 8.22375C15.9174 8.2648 16.0306 8.33094 16.1268 8.41798C16.223 8.50502 16.3 8.61108 16.3531 8.72943C16.4062 8.84779 16.4341 8.97587 16.4352 9.10559C16.4362 9.2353 16.4103 9.36381 16.3591 9.483L14.4684 13.8953L15.3354 14.3295C15.4266 14.3716 15.5084 14.4316 15.5759 14.506C15.6435 14.5803 15.6954 14.6674 15.7286 14.7622C15.7619 14.857 15.7757 14.9575 15.7694 15.0577C15.763 15.158 15.7366 15.2559 15.6917 15.3458C15.6468 15.4356 15.5843 15.5155 15.5079 15.5807C15.4315 15.646 15.3428 15.6952 15.247 15.7255C15.1512 15.7557 15.0504 15.7665 14.9504 15.757C14.8504 15.7476 14.7533 15.7182 14.6649 15.6705L12.6706 14.6737C12.4624 14.5697 12.2329 14.5156 12.0001 14.5156C11.7674 14.5156 11.5378 14.5697 11.3296 14.6737L10.3419 15.168C9.92529 15.3763 9.46591 15.4848 9.00013 15.4848C8.53436 15.4848 8.07498 15.3763 7.65838 15.168L6.67063 14.6737C6.46233 14.5696 6.23264 14.5154 5.99976 14.5154C5.76687 14.5154 5.53718 14.5696 5.32888 14.6737L3.33538 15.6713C3.15736 15.7602 2.9513 15.7747 2.76254 15.7117C2.57379 15.6487 2.4178 15.5133 2.32888 15.3353C2.23997 15.1572 2.22542 14.9512 2.28843 14.7624C2.35144 14.5737 2.48685 14.4177 2.66488 14.3287L4.03888 13.6417L1.71238 9.57075C1.64357 9.45032 1.60233 9.31613 1.59165 9.17784C1.58097 9.03955 1.60111 8.90061 1.65061 8.77104C1.70011 8.64147 1.77775 8.5245 1.87792 8.42857C1.97809 8.33263 2.0983 8.26011 2.22988 8.21625L3.75013 7.70925V5.13525C3.75006 4.78028 3.87587 4.43679 4.10521 4.16584C4.33454 3.8949 4.65253 3.71407 5.00263 3.6555L7.50013 3.24V2.25ZM5.43763 13.0687C6.08383 12.9454 6.75266 13.0379 7.34113 13.332L8.32813 13.8263C8.53653 13.9305 8.76635 13.9848 8.99938 13.9848C9.23241 13.9848 9.46224 13.9305 9.67063 13.8263L10.6576 13.332C11.0375 13.1421 11.4533 13.035 11.8777 13.0178C12.302 13.0006 12.7252 13.0737 13.1191 13.2323L14.7391 9.45375L9.00013 7.54125L3.35488 9.42225L5.43763 13.0687ZM12.7501 7.20975V5.13525L9.00013 4.5105L5.25013 5.13525V7.20975L8.52538 6.11775C8.8333 6.0151 9.16621 6.0151 9.47413 6.11775L12.7501 7.20975Z" fill="#303030"/>
</svg>
