<svg width="56" height="56" viewBox="0 0 56 56" fill="none" xmlns="http://www.w3.org/2000/svg">
<path fill-rule="evenodd" clip-rule="evenodd" d="M28 2.91667C25.0606 2.91667 22.2415 4.08437 20.1629 6.1629C18.0844 8.24143 16.9167 11.0605 16.9167 14C16.9167 16.9395 18.0844 19.7586 20.1629 21.8371C22.2415 23.9156 25.0606 25.0833 28 25.0833C30.9395 25.0833 33.7586 23.9156 35.8371 21.8371C37.9157 19.7586 39.0834 16.9395 39.0834 14C39.0834 11.0605 37.9157 8.24143 35.8371 6.1629C33.7586 4.08437 30.9395 2.91667 28 2.91667ZM20.4167 14C20.4167 11.9888 21.2157 10.0599 22.6378 8.63777C24.06 7.21562 25.9888 6.41667 28 6.41667C30.0113 6.41667 31.9401 7.21562 33.3623 8.63777C34.7844 10.0599 35.5834 11.9888 35.5834 14C35.5834 16.0112 34.7844 17.9401 33.3623 19.3622C31.9401 20.7844 30.0113 21.5833 28 21.5833C25.9888 21.5833 24.06 20.7844 22.6378 19.3622C21.2157 17.9401 20.4167 16.0112 20.4167 14ZM28 28.5833C22.603 28.5833 17.6284 29.8107 13.944 31.8827C10.3134 33.9267 7.58338 37.0207 7.58338 40.8333V41.0713C7.58105 43.7827 7.57872 47.1847 10.563 49.616C12.0307 50.8107 14.0864 51.6623 16.863 52.2223C19.6444 52.787 23.2727 53.0833 28 53.0833C32.7274 53.0833 36.3534 52.787 39.1394 52.2223C41.916 51.6623 43.9694 50.8107 45.4394 49.616C48.4237 47.1847 48.419 43.7827 48.4167 41.0713V40.8333C48.4167 37.0207 45.6867 33.9267 42.0584 31.8827C38.3717 29.8107 33.3994 28.5833 28 28.5833ZM11.0834 40.8333C11.0834 38.8477 12.5347 36.6917 15.659 34.9347C18.7297 33.208 23.0884 32.0833 28.0024 32.0833C32.9117 32.0833 37.2704 33.208 40.341 34.9347C43.4677 36.6917 44.9167 38.8477 44.9167 40.8333C44.9167 43.8853 44.8234 45.6027 43.2274 46.9C42.364 47.6047 40.9174 48.293 38.444 48.7923C35.9777 49.2917 32.606 49.5833 28 49.5833C23.394 49.5833 20.02 49.2917 17.556 48.7923C15.0827 48.293 13.636 47.6047 12.7727 46.9023C11.1767 45.6027 11.0834 43.8853 11.0834 40.8333Z" fill="black"/>
</svg>