<svg width="221" height="74" viewBox="0 0 221 74" fill="none" xmlns="http://www.w3.org/2000/svg">
<path d="M99.12 23.12H89.04V50H83.28V23.12H73.2V17.84H99.12V23.12ZM128.153 28.448C128.153 31.36 127.289 33.744 125.561 35.6C123.865 37.424 121.529 38.528 118.553 38.912C119.225 40.672 120.345 42.048 121.913 43.04C123.481 44 125.401 44.48 127.673 44.48H129.113V50H127.432C125.225 50 123.193 49.632 121.337 48.896C119.481 48.16 117.881 47.136 116.537 45.824C115.193 44.48 114.153 42.896 113.417 41.072C112.681 39.216 112.312 37.184 112.312 34.976V33.776H116.297C118.121 33.776 119.593 33.312 120.713 32.384C121.833 31.424 122.393 30.112 122.393 28.448C122.393 26.816 121.849 25.52 120.761 24.56C119.673 23.6 118.185 23.12 116.297 23.12H108.953V50H103.193V17.84H116.297C118.121 17.84 119.753 18.096 121.193 18.608C122.665 19.088 123.913 19.792 124.937 20.72C125.961 21.648 126.745 22.768 127.289 24.08C127.865 25.36 128.153 26.816 128.153 28.448ZM131.261 50L143.789 17.84H149.549L162.029 50H155.837L153.485 43.76H139.805L137.453 50H131.261ZM141.821 38.48H151.517L146.669 25.616L141.821 38.48ZM165.499 17.84L175.819 42.128L186.091 17.84H192.427L178.459 50H173.179L159.163 17.84H165.499ZM189.574 50L202.102 17.84H207.862L220.342 50H214.15L211.798 43.76H198.118L195.766 50H189.574ZM200.134 38.48H209.83L204.982 25.616L200.134 38.48Z" fill="black"/>
<g clip-path="url(#clip0_14_67)">
<path d="M21.8467 49.9492L1.70178 50C-0.428209 50.0063 -0.593715 47.2846 1.39236 45.727L38.6672 16.5107C39.0846 16.184 39.6135 16 40.1316 16H43.9382C45.4242 16 46.2301 17.4116 45.3954 18.5949L24.2106 48.6137C23.6313 49.4322 22.7246 49.9492 21.8467 49.9492Z" fill="#389CA4"/>
<path d="M46.3561 49.9492L32.1369 50C30.3631 50.0063 29.7263 47.8556 30.9172 46.0664L50.3462 16.8882C50.7096 16.3426 51.3716 16 52.0516 16H60.2082C61.4675 16 62.3382 17.1325 61.8705 18.2015L48.7415 48.1918C48.281 49.245 47.3311 49.9461 46.3525 49.9492H46.3561Z" fill="#389CA4"/>
</g>
<defs>
<clipPath id="clip0_14_67">
<rect width="62" height="34" fill="white" transform="translate(0 16)"/>
</clipPath>
</defs>
</svg>

